<?xml version="1.0" standalone="no"?>
<!DOCTYPE svg PUBLIC "-//W3C//DTD SVG 20010904//EN"
 "http://www.w3.org/TR/2001/REC-SVG-20010904/DTD/svg10.dtd">
<svg version="1.0" xmlns="http://www.w3.org/2000/svg"
 width="96.000000pt" height="96.000000pt" viewBox="0 0 96.000000 96.000000"
 preserveAspectRatio="xMidYMid meet">
<metadata>
Created by potrace 1.14, written by Peter Selinger 2001-2017
</metadata>
<g transform="translate(0.000000,96.000000) scale(0.100000,-0.100000)"
fill="#000000" stroke="none">
<path d="M317 946 c-90 -33 -163 -110 -187 -196 -5 -19 -10 -61 -10 -92 0 -56
-1 -58 -26 -58 -14 0 -34 -5 -45 -10 -18 -10 -19 -24 -19 -251 0 -147 4 -248
10 -260 10 -18 25 -19 380 -19 418 0 390 -6 390 82 0 37 5 47 35 71 55 44 71
85 66 170 -1 19 -17 44 -51 78 -40 40 -50 56 -50 84 0 37 -20 55 -63 55 -23 0
-24 4 -30 78 -8 119 -53 195 -147 246 -64 35 -190 46 -253 22z m193 -128 c58
-29 90 -89 90 -165 l0 -53 -180 0 -180 0 0 53 c1 84 43 155 110 180 37 14 117
6 160 -15z"/>
</g>
</svg>
